<?xml version="1.0" standalone="no"?>
<!DOCTYPE svg PUBLIC "-//W3C//DTD SVG 20010904//EN"
 "http://www.w3.org/TR/2001/REC-SVG-20010904/DTD/svg10.dtd">
<svg version="1.0" xmlns="http://www.w3.org/2000/svg"
 width="200.000000pt" height="200.000000pt" viewBox="0 0 200.000000 200.000000"
 preserveAspectRatio="xMidYMid meet">
<metadata>
Created by potrace 1.14, written by Peter Selinger 2001-2017
</metadata>
<g transform="translate(0.000000,200.000000) scale(0.100000,-0.100000)"
fill="#000000" stroke="none">
<path d="M968 1935 c-2 -2 -34 -6 -73 -10 -285 -28 -557 -238 -668 -516 -50
-124 -57 -177 -59 -399 -1 -242 12 -320 78 -459 120 -255 350 -428 634 -476
44 -8 186 -8 225 -1 17 3 46 8 65 11 139 23 307 114 417 227 128 130 198 263
234 443 11 60 15 417 4 465 -3 14 -8 39 -10 55 -23 133 -131 326 -235 424
-136 128 -315 212 -481 226 -41 4 -86 8 -101 10 -15 1 -29 1 -30 0z m187 -84
c257 -57 475 -244 563 -486 103 -279 32 -596 -179 -807 -93 -93 -254 -184
-361 -204 -98 -17 -135 -21 -209 -18 -109 5 -196 27 -304 79 -156 75 -264 181
-345 336 -178 342 -67 772 253 983 99 65 188 101 294 120 86 15 211 13 288 -3z
m-789 -1333 c2 -53 -12 -39 -57 56 -61 131 -60 153 2 61 40 -59 54 -90 55
-117z m1358 136 c-20 -59 -70 -160 -83 -168 -5 -4 -9 10 -8 31 2 27 17 61 52
114 28 42 51 75 53 74 1 -1 -5 -24 -14 -51z m-1158 -324 c1 -69 -2 -69 -83 4
-42 38 -50 50 -50 83 -2 65 2 66 69 17 l63 -46 1 -58z m1000 98 c-2 -47 -6
-54 -50 -95 -81 -73 -84 -73 -82 -2 1 45 6 63 18 70 10 5 36 25 60 43 24 19
46 35 50 35 3 1 5 -22 4 -51z m-859 -107 l61 -23 0 -59 c-1 -33 -4 -61 -8 -64
-4 -2 -34 9 -67 24 l-61 29 1 61 c1 34 4 60 7 59 3 -2 33 -14 67 -27z m658
-28 c-1 -32 -3 -61 -4 -64 -1 -7 -72 -42 -107 -53 -19 -6 -20 -2 -20 58 l0 64
60 25 c34 13 64 25 67 26 4 0 5 -25 4 -56z m-405 -30 c3 -2 5 -33 6 -69 0 -72
12 -65 -92 -49 l-42 6 1 65 1 64 60 -6 c34 -3 63 -8 66 -11z m206 -48 l2 -65
-32 -5 c-17 -3 -47 -6 -66 -8 l-35 -2 0 65 0 65 50 6 c28 3 57 7 65 7 12 2 15
-12 16 -63z"/>
<path d="M930 1763 c-226 -30 -410 -153 -513 -343 -106 -196 -110 -427 -10
-624 79 -155 223 -276 398 -333 115 -37 275 -37 390 1 108 35 196 88 274 167
355 355 207 952 -275 1105 -70 22 -201 36 -264 27z m203 -79 c202 -46 381
-214 442 -414 42 -138 23 -321 -47 -453 -42 -80 -164 -202 -243 -244 -176 -92
-376 -94 -555 -6 -92 45 -210 159 -257 248 -93 178 -95 377 -6 558 45 90 160
207 250 255 123 65 282 86 416 56z"/>
<path d="M736 1308 c-6 -30 -6 -386 0 -416 4 -19 10 -23 32 -20 27 3 27 3 30
93 2 49 6 93 11 98 4 4 20 3 34 -4 20 -9 35 -34 63 -100 32 -77 40 -89 61 -89
13 0 26 7 30 16 7 19 -52 170 -79 200 -18 20 -18 21 8 45 38 36 66 96 68 148
1 41 -1 46 -23 49 -27 4 -41 -12 -41 -48 0 -50 -75 -140 -117 -140 -9 0 -13
28 -15 93 -3 92 -3 92 -30 95 -22 3 -28 -1 -32 -20z"/>
<path d="M1081 1161 c-10 -6 -14 -40 -15 -130 -2 -133 4 -161 33 -161 29 0 34
15 35 106 1 66 5 86 20 103 24 26 57 27 87 2 22 -17 24 -27 25 -107 0 -67 4
-90 16 -98 26 -16 48 0 49 36 6 136 -1 176 -34 210 -31 33 -66 46 -107 41 -53
-6 -64 -6 -80 0 -8 4 -21 3 -29 -2z"/>
</g>
</svg>
